<svg id="svg" version="1.1" xmlns="http://www.w3.org/2000/svg" xmlns:xlink="http://www.w3.org/1999/xlink" width="400" height="622.8155339805826" viewBox="0, 0, 400,622.8155339805826"><g id="svgg"><path id="path0" d="M328.200 2.400 C 327.803 3.280,327.371 4.002,327.239 4.005 C 327.108 4.007,326.650 4.772,326.223 5.705 C 325.796 6.637,325.256 7.580,325.023 7.800 C 324.790 8.020,324.242 8.920,323.804 9.800 C 323.366 10.680,322.902 11.490,322.774 11.600 C 322.645 11.710,321.600 13.510,320.450 15.600 C 319.301 17.690,317.204 21.380,315.789 23.800 C 314.375 26.220,312.809 29.003,312.309 29.984 C 311.809 30.965,311.085 32.090,310.700 32.484 C 310.315 32.878,310.000 33.457,310.000 33.771 C 310.000 34.086,309.751 34.592,309.446 34.897 C 309.142 35.201,308.488 36.249,307.993 37.225 C 307.498 38.201,306.969 39.090,306.819 39.200 C 306.668 39.310,306.116 40.300,305.591 41.400 C 305.066 42.500,304.488 43.580,304.306 43.800 C 303.614 44.635,300.895 49.439,300.627 50.300 C 300.472 50.795,300.181 51.200,299.978 51.200 C 299.682 51.200,298.400 53.675,298.400 54.249 C 298.400 54.332,300.733 54.400,303.584 54.400 C 308.957 54.400,310.400 53.924,310.400 52.153 C 310.400 51.880,310.678 51.379,311.018 51.039 C 311.357 50.700,311.993 49.614,312.429 48.627 C 312.866 47.641,313.382 46.735,313.577 46.614 C 313.771 46.494,314.343 45.542,314.847 44.498 C 315.351 43.454,315.912 42.420,316.094 42.200 C 316.783 41.369,319.600 36.427,319.600 36.050 C 319.600 35.834,319.851 35.406,320.157 35.100 C 320.463 34.794,321.187 33.656,321.766 32.572 C 322.344 31.487,323.265 29.880,323.812 29.000 C 324.359 28.120,325.348 26.410,326.011 25.200 C 326.673 23.990,327.748 22.100,328.400 21.000 C 329.051 19.900,330.062 18.100,330.645 17.000 C 331.228 15.900,331.827 14.910,331.976 14.800 C 332.290 14.569,334.150 11.333,335.310 9.000 C 335.747 8.120,336.227 7.310,336.375 7.200 C 336.775 6.904,339.600 1.636,339.600 1.186 C 339.600 0.957,337.427 0.800,334.261 0.800 L 328.921 0.800 328.200 2.400 M285.616 76.075 C 285.167 76.557,284.800 77.174,284.800 77.447 C 284.800 77.720,284.522 78.221,284.182 78.561 C 283.843 78.900,283.211 79.979,282.778 80.957 C 282.345 81.936,281.858 82.796,281.695 82.868 C 281.533 82.941,280.988 83.810,280.485 84.800 C 279.442 86.854,277.825 89.609,277.316 90.200 C 277.126 90.420,276.552 91.500,276.039 92.600 C 275.527 93.700,274.972 94.690,274.807 94.800 C 274.642 94.910,274.120 95.720,273.645 96.600 C 273.171 97.480,272.251 99.100,271.599 100.200 C 270.948 101.300,269.938 103.100,269.355 104.200 C 268.772 105.300,268.184 106.290,268.048 106.400 C 267.778 106.617,267.461 107.163,265.278 111.156 C 264.483 112.610,263.622 114.017,263.364 114.281 C 263.106 114.546,262.558 115.580,262.147 116.580 C 261.736 117.579,261.292 118.398,261.161 118.399 C 261.029 118.399,260.597 119.120,260.200 120.000 C 259.803 120.880,259.348 121.600,259.189 121.600 C 259.029 121.600,258.518 122.455,258.053 123.500 C 257.588 124.545,256.961 125.715,256.660 126.100 C 256.141 126.763,251.397 126.800,167.080 126.800 C 118.112 126.800,77.960 126.942,77.853 127.115 C 77.676 127.400,81.898 135.108,82.884 136.300 C 83.213 136.697,100.495 136.800,166.849 136.800 C 222.283 136.800,250.400 136.935,250.400 137.200 C 250.400 137.420,250.265 137.603,250.100 137.606 C 249.935 137.610,249.360 138.510,248.821 139.606 C 248.283 140.703,247.710 141.600,247.548 141.600 C 247.386 141.600,247.128 142.005,246.973 142.500 C 246.717 143.323,244.052 148.054,243.313 149.000 C 243.141 149.220,242.564 150.300,242.032 151.400 C 241.500 152.500,240.949 153.490,240.808 153.600 C 240.668 153.710,240.048 154.700,239.431 155.800 C 237.680 158.920,236.593 160.803,235.042 163.400 C 234.254 164.720,233.242 166.558,232.793 167.483 C 232.344 168.409,231.807 169.272,231.600 169.400 C 231.393 169.528,230.849 170.391,230.391 171.317 C 229.283 173.561,228.417 175.080,226.880 177.476 C 226.176 178.573,225.600 179.666,225.600 179.906 C 225.600 180.146,225.366 180.581,225.080 180.871 C 224.462 181.499,222.798 184.289,221.544 186.800 C 221.049 187.790,220.533 188.690,220.396 188.800 C 220.260 188.910,219.275 190.620,218.208 192.600 C 217.142 194.580,216.142 196.290,215.987 196.400 C 215.721 196.589,214.441 198.858,212.574 202.450 C 212.120 203.324,211.533 204.345,211.269 204.719 C 210.348 206.024,207.600 210.891,207.600 211.216 C 207.600 211.396,207.351 211.792,207.046 212.097 C 206.742 212.401,206.095 213.429,205.609 214.381 C 205.124 215.334,204.553 216.312,204.342 216.556 C 204.130 216.800,203.652 217.569,203.279 218.264 C 200.819 222.846,200.265 223.822,200.020 224.000 C 199.869 224.110,199.320 225.100,198.800 226.200 C 198.280 227.300,197.732 228.290,197.581 228.400 C 197.431 228.510,196.913 229.320,196.430 230.200 C 195.948 231.080,195.026 232.700,194.380 233.800 C 193.735 234.900,192.736 236.687,192.161 237.772 C 191.585 238.856,190.874 239.983,190.581 240.276 C 190.288 240.569,189.822 241.437,189.544 242.204 C 189.266 242.972,188.909 243.600,188.749 243.600 C 188.589 243.600,187.991 244.545,187.418 245.700 C 186.102 248.358,184.408 251.336,184.064 251.599 C 183.805 251.796,182.564 254.027,180.726 257.600 C 180.217 258.590,179.580 259.633,179.311 259.918 C 179.042 260.202,178.454 261.192,178.004 262.118 C 177.153 263.869,175.501 266.709,174.930 267.400 C 174.749 267.620,174.240 268.515,173.800 269.389 C 173.360 270.263,172.850 271.163,172.666 271.389 C 172.209 271.952,170.244 275.415,169.141 277.600 C 168.642 278.590,168.000 279.638,167.716 279.929 C 166.796 280.870,167.158 282.128,169.521 286.200 C 172.620 291.541,172.012 291.833,177.170 282.519 C 178.364 280.363,179.482 278.504,179.654 278.386 C 179.827 278.268,180.341 277.331,180.796 276.303 C 181.251 275.274,181.793 274.328,182.000 274.200 C 182.207 274.072,182.741 273.209,183.186 272.283 C 183.632 271.358,184.897 269.089,185.998 267.241 C 187.099 265.394,188.000 263.742,188.000 263.570 C 188.000 263.398,188.249 263.008,188.554 262.703 C 188.858 262.399,189.490 261.441,189.958 260.575 C 190.426 259.709,191.337 258.100,191.982 257.000 C 192.627 255.900,193.638 254.100,194.230 253.000 C 194.821 251.900,195.418 250.910,195.556 250.800 C 195.695 250.690,196.166 249.880,196.604 249.000 C 197.042 248.120,197.511 247.310,197.648 247.200 C 197.784 247.090,198.380 246.100,198.972 245.000 C 200.150 242.813,201.152 241.062,203.320 237.400 C 204.102 236.080,205.160 234.190,205.670 233.200 C 206.181 232.210,206.711 231.310,206.847 231.200 C 206.984 231.090,207.580 230.100,208.173 229.000 C 208.767 227.900,209.684 226.280,210.212 225.400 C 210.739 224.520,211.647 222.913,212.229 221.828 C 212.810 220.744,213.515 219.628,213.796 219.347 C 214.076 219.067,214.642 218.020,215.053 217.020 C 215.464 216.021,215.927 215.202,216.081 215.201 C 216.236 215.201,216.734 214.435,217.187 213.500 C 217.641 212.565,218.625 210.810,219.375 209.600 C 220.125 208.390,221.157 206.590,221.669 205.600 C 222.181 204.610,222.710 203.710,222.846 203.600 C 222.982 203.490,223.480 202.680,223.955 201.800 C 224.429 200.920,225.349 199.300,226.001 198.200 C 226.652 197.100,227.662 195.300,228.245 194.200 C 228.828 193.100,229.429 192.110,229.580 192.000 C 229.731 191.890,230.280 190.900,230.800 189.800 C 231.320 188.700,231.868 187.710,232.019 187.600 C 232.169 187.490,232.687 186.680,233.170 185.800 C 233.652 184.920,234.574 183.300,235.220 182.200 C 235.865 181.100,236.868 179.300,237.449 178.200 C 238.030 177.100,238.618 176.110,238.756 176.000 C 238.895 175.890,239.366 175.083,239.804 174.206 C 240.242 173.329,240.820 172.377,241.089 172.088 C 241.358 171.800,241.952 170.808,242.409 169.882 C 243.414 167.847,244.193 166.467,245.902 163.694 C 246.616 162.536,247.200 161.411,247.200 161.194 C 247.200 160.977,247.349 160.800,247.532 160.800 C 247.714 160.800,248.298 159.855,248.830 158.700 C 249.362 157.545,250.028 156.357,250.310 156.060 C 250.592 155.763,251.091 154.953,251.419 154.260 C 251.747 153.567,252.628 152.010,253.377 150.800 C 254.126 149.590,255.158 147.790,255.669 146.800 C 256.181 145.810,256.786 144.801,257.013 144.559 C 257.240 144.316,257.780 143.327,258.213 142.362 C 258.646 141.396,259.315 140.290,259.700 139.903 C 260.085 139.516,260.400 138.958,260.400 138.662 C 260.400 136.765,259.587 136.812,294.829 136.702 L 327.800 136.600 330.446 132.000 C 331.901 129.470,333.016 127.265,332.922 127.100 C 332.829 126.935,317.986 126.800,299.937 126.800 L 267.121 126.800 267.970 125.500 C 268.437 124.785,269.658 122.670,270.684 120.800 C 271.709 118.930,272.668 117.310,272.814 117.200 C 272.960 117.090,274.022 115.290,275.173 113.200 C 277.658 108.689,279.018 106.347,279.470 105.800 C 279.651 105.580,280.236 104.500,280.768 103.400 C 281.300 102.300,281.861 101.310,282.014 101.200 C 282.167 101.090,282.679 100.280,283.151 99.400 C 283.623 98.520,284.537 96.900,285.182 95.800 C 285.827 94.700,286.838 92.900,287.430 91.800 C 288.021 90.700,288.616 89.710,288.752 89.600 C 288.889 89.490,289.358 88.680,289.796 87.800 C 290.234 86.920,290.705 86.110,290.844 86.000 C 290.982 85.890,291.614 84.841,292.248 83.669 C 294.491 79.521,295.020 78.585,295.884 77.228 C 297.121 75.288,296.925 75.200,291.392 75.200 C 286.804 75.200,286.370 75.266,285.616 76.075 M213.600 139.085 C 213.270 139.207,211.830 139.848,210.400 140.509 C 208.970 141.169,207.170 141.928,206.400 142.195 L 205.000 142.680 204.897 166.540 C 204.779 193.764,204.375 191.288,208.606 189.242 C 209.923 188.606,211.945 187.754,213.100 187.349 L 215.200 186.612 215.200 162.706 C 215.200 137.791,215.246 138.476,213.600 139.085 M180.700 153.722 C 179.655 153.949,178.800 154.270,178.800 154.435 C 178.800 154.601,178.215 154.862,177.500 155.015 C 176.785 155.168,174.891 155.902,173.291 156.647 C 171.691 157.391,170.177 158.000,169.926 158.000 C 169.676 158.000,168.734 158.418,167.835 158.928 C 166.936 159.438,165.435 160.097,164.500 160.392 C 163.565 160.687,162.800 161.042,162.800 161.181 C 162.800 161.320,161.765 161.774,160.500 162.189 C 159.235 162.605,157.930 163.155,157.600 163.412 C 157.270 163.670,155.785 164.301,154.300 164.814 C 152.815 165.328,151.600 165.880,151.600 166.042 C 151.600 166.204,151.060 166.455,150.400 166.600 L 149.200 166.864 149.200 190.832 C 149.200 210.696,149.293 214.800,149.740 214.800 C 150.038 214.800,151.127 214.350,152.162 213.800 C 153.196 213.250,154.220 212.800,154.438 212.800 C 154.655 212.800,155.996 212.256,157.417 211.592 L 160.000 210.384 160.000 202.424 L 160.000 194.464 161.204 194.199 C 161.866 194.054,162.631 193.724,162.904 193.467 C 163.177 193.209,164.390 192.650,165.600 192.225 C 166.810 191.799,168.340 191.144,169.000 190.769 C 169.660 190.395,170.915 189.861,171.789 189.584 C 172.663 189.306,173.621 188.836,173.918 188.540 C 174.214 188.243,174.687 188.000,174.967 188.000 C 175.633 188.000,178.053 186.793,178.729 186.124 C 179.019 185.836,179.433 185.600,179.648 185.600 C 180.482 185.600,185.073 182.068,187.705 179.400 C 191.387 175.669,191.411 175.640,192.261 173.800 C 192.667 172.920,193.127 172.104,193.282 171.987 C 194.009 171.440,194.800 166.707,194.800 162.903 C 194.800 157.334,194.066 155.716,190.633 153.714 C 189.626 153.127,183.422 153.132,180.700 153.722 M183.136 164.589 C 184.455 166.039,184.848 168.358,184.035 169.905 C 183.835 170.287,183.381 171.410,183.028 172.400 C 182.118 174.947,176.396 180.400,174.634 180.400 C 174.478 180.400,173.417 180.833,172.275 181.363 C 165.315 184.593,163.979 185.174,162.471 185.626 C 161.552 185.901,160.800 186.278,160.800 186.463 C 160.800 186.648,160.620 186.800,160.400 186.800 C 160.147 186.800,160.000 183.949,160.000 179.046 C 160.000 170.231,159.728 170.920,163.800 169.412 C 164.900 169.004,166.160 168.453,166.600 168.187 C 167.040 167.920,168.345 167.374,169.500 166.972 C 170.655 166.571,171.600 166.129,171.600 165.991 C 171.600 165.854,172.995 165.316,174.700 164.798 C 176.405 164.279,177.971 163.707,178.180 163.527 C 179.227 162.625,181.862 163.190,183.136 164.589 M132.200 174.234 C 130.880 174.792,128.810 175.636,127.600 176.110 C 124.135 177.466,124.400 175.800,124.400 196.260 L 124.400 214.578 123.100 213.035 C 122.385 212.186,120.720 210.362,119.400 208.981 C 118.080 207.600,115.380 204.712,113.400 202.564 C 109.850 198.711,106.604 195.204,102.420 190.700 C 100.376 188.500,99.410 188.005,98.580 188.734 C 98.371 188.918,97.300 189.396,96.200 189.797 C 95.100 190.198,94.110 190.652,94.000 190.804 C 93.890 190.957,92.822 191.404,91.628 191.797 C 90.433 192.191,88.903 192.832,88.228 193.222 C 87.552 193.612,86.235 194.156,85.300 194.429 L 83.600 194.927 83.600 218.863 C 83.600 233.932,83.743 242.800,83.985 242.800 C 84.570 242.800,88.892 241.145,89.800 240.573 C 90.240 240.296,91.365 239.845,92.300 239.571 C 93.235 239.297,94.041 239.057,94.091 239.037 C 94.141 239.017,94.276 229.923,94.391 218.830 L 94.600 198.660 96.037 200.230 C 96.827 201.093,98.794 203.240,100.408 205.000 C 102.023 206.760,104.346 209.299,105.572 210.643 C 111.418 217.053,114.360 220.251,116.146 222.141 C 117.216 223.273,118.543 224.785,119.094 225.500 C 119.644 226.215,120.430 226.800,120.839 226.800 C 121.643 226.800,124.872 225.617,125.200 225.202 C 125.310 225.063,126.570 224.522,128.000 224.000 C 129.430 223.478,130.690 222.934,130.800 222.792 C 130.910 222.650,131.945 222.198,133.100 221.788 L 135.200 221.042 135.200 197.121 C 135.200 183.964,135.065 173.204,134.900 173.209 C 134.735 173.215,133.520 173.676,132.200 174.234 M68.600 201.692 C 67.940 201.927,67.310 202.237,67.200 202.381 C 67.090 202.524,66.100 202.975,65.000 203.384 C 63.900 203.792,62.910 204.251,62.800 204.403 C 62.690 204.556,62.060 204.857,61.400 205.073 L 60.200 205.467 60.097 229.384 L 59.994 253.301 61.277 253.045 C 61.983 252.903,62.659 252.637,62.780 252.453 C 62.901 252.269,63.990 251.748,65.200 251.295 C 66.410 250.843,67.940 250.187,68.600 249.838 C 69.260 249.490,70.025 249.204,70.300 249.202 C 70.694 249.201,70.800 244.132,70.800 225.200 C 70.800 206.250,70.695 201.207,70.300 201.232 C 70.025 201.249,69.260 201.456,68.600 201.692 M36.400 215.909 C 36.400 216.079,35.208 216.444,33.752 216.720 C 32.295 216.996,29.910 217.771,28.452 218.443 C 24.860 220.095,20.245 222.480,20.000 222.811 C 19.890 222.959,19.350 223.316,18.800 223.605 C 16.159 224.991,9.660 231.124,7.691 234.087 C 5.875 236.821,3.648 241.144,3.139 242.922 C 2.876 243.845,2.522 244.786,2.353 245.014 C 0.897 246.973,0.896 258.909,2.351 262.200 C 2.545 262.640,3.026 263.772,3.420 264.716 C 4.982 268.460,8.818 271.114,13.200 271.481 C 15.883 271.706,21.989 271.010,22.400 270.432 C 22.510 270.277,23.815 269.827,25.300 269.431 C 26.785 269.035,28.000 268.551,28.000 268.356 C 28.000 268.160,28.261 268.000,28.581 268.000 C 31.848 268.000,43.386 258.941,47.700 252.989 L 48.800 251.471 48.800 242.536 C 48.800 233.867,48.776 233.600,48.000 233.600 C 47.560 233.600,47.200 233.742,47.200 233.915 C 47.200 234.088,45.940 234.666,44.400 235.200 C 42.860 235.734,41.600 236.293,41.600 236.441 C 41.600 236.590,40.790 236.951,39.800 237.243 L 38.000 237.775 38.000 245.629 C 38.000 254.604,37.839 254.981,32.790 257.835 C 32.046 258.256,30.837 258.992,30.105 259.471 C 29.373 259.950,28.239 260.460,27.587 260.603 C 26.934 260.746,26.400 261.014,26.400 261.199 C 26.400 262.171,18.676 262.790,17.097 261.945 C 11.807 259.114,10.530 248.463,14.497 240.261 C 15.151 238.908,15.818 237.710,15.978 237.600 C 16.138 237.490,16.457 237.056,16.687 236.635 C 17.295 235.522,22.086 230.800,22.607 230.800 C 22.850 230.800,23.398 230.477,23.825 230.083 C 24.996 229.000,30.338 226.515,32.600 226.001 C 33.700 225.751,34.913 225.379,35.295 225.173 C 36.202 224.685,40.613 224.691,41.505 225.182 C 41.887 225.392,43.100 225.968,44.200 226.461 C 45.300 226.955,46.335 227.428,46.500 227.513 C 46.665 227.597,46.800 225.132,46.800 222.033 C 46.800 216.667,46.762 216.400,46.000 216.400 C 45.560 216.400,45.200 216.220,45.200 216.000 C 45.200 215.758,43.467 215.600,40.800 215.600 C 38.380 215.600,36.400 215.739,36.400 215.909 " stroke="none" fill="#34a48c" fill-rule="evenodd"></path><path id="path1" d="M10.800 54.797 C 10.800 55.239,10.938 55.600,11.106 55.600 C 11.274 55.600,11.855 56.545,12.398 57.700 C 12.941 58.855,13.537 59.980,13.723 60.200 C 14.289 60.872,15.940 63.703,16.812 65.500 C 17.266 66.435,17.764 67.201,17.919 67.201 C 18.073 67.202,18.536 68.021,18.947 69.020 C 19.358 70.020,19.924 71.067,20.204 71.347 C 20.485 71.628,21.190 72.744,21.771 73.828 C 22.353 74.913,23.261 76.520,23.788 77.400 C 24.316 78.280,25.233 79.900,25.827 81.000 C 26.420 82.100,27.016 83.090,27.153 83.200 C 27.289 83.310,27.819 84.210,28.331 85.200 C 28.843 86.190,29.873 87.990,30.620 89.200 C 31.367 90.410,32.337 92.165,32.775 93.100 C 33.213 94.035,33.713 94.801,33.886 94.801 C 34.059 94.802,34.536 95.621,34.947 96.620 C 35.358 97.620,35.908 98.654,36.168 98.919 C 36.428 99.183,37.053 100.254,37.555 101.298 C 38.058 102.342,38.641 103.302,38.851 103.432 C 39.062 103.562,39.516 104.373,39.860 105.234 C 40.205 106.095,40.628 106.800,40.800 106.800 C 40.972 106.800,41.392 107.496,41.732 108.347 C 42.073 109.198,42.587 110.143,42.876 110.447 C 43.164 110.751,43.850 111.870,44.400 112.934 C 44.950 113.998,45.580 115.171,45.800 115.542 C 46.020 115.913,46.735 117.113,47.388 118.208 C 49.037 120.972,49.626 122.006,50.952 124.464 C 51.586 125.639,52.216 126.690,52.352 126.800 C 52.489 126.910,52.958 127.720,53.396 128.600 C 53.834 129.480,54.305 130.290,54.444 130.400 C 54.685 130.592,56.075 133.079,57.833 136.466 C 58.291 137.348,58.836 138.189,59.044 138.335 C 59.252 138.481,59.759 139.365,60.172 140.300 C 60.584 141.235,61.032 142.000,61.166 142.000 C 61.301 142.000,61.852 142.945,62.392 144.100 C 62.931 145.255,63.490 146.290,63.634 146.400 C 63.778 146.510,64.380 147.500,64.973 148.600 C 65.567 149.700,66.484 151.320,67.012 152.200 C 67.539 153.080,68.447 154.687,69.029 155.772 C 69.610 156.856,70.337 157.994,70.643 158.300 C 70.949 158.606,71.200 159.000,71.200 159.176 C 71.200 159.580,74.480 165.327,74.875 165.614 C 75.037 165.732,75.544 166.677,76.003 167.714 C 76.462 168.751,76.964 169.601,77.119 169.601 C 77.273 169.602,77.736 170.421,78.147 171.420 C 78.558 172.420,79.123 173.465,79.401 173.744 C 79.679 174.022,80.290 174.959,80.758 175.825 C 81.226 176.691,82.137 178.300,82.782 179.400 C 83.427 180.500,84.411 182.242,84.970 183.272 C 86.346 185.809,86.374 185.815,89.686 184.275 C 91.289 183.530,93.095 182.800,93.700 182.653 C 94.305 182.505,94.800 182.221,94.800 182.021 C 94.800 180.806,102.607 180.593,103.991 181.770 C 104.650 182.331,109.406 187.090,113.300 191.086 C 115.282 193.119,117.448 194.359,116.058 192.664 C 115.848 192.409,115.210 191.345,114.639 190.300 C 114.067 189.255,113.132 187.545,112.559 186.500 C 111.987 185.455,111.402 184.510,111.259 184.400 C 111.117 184.290,110.640 183.480,110.201 182.600 C 109.761 181.720,109.176 180.762,108.901 180.471 C 108.625 180.181,108.400 179.761,108.400 179.539 C 108.400 179.317,107.813 178.205,107.096 177.068 C 105.770 174.966,105.127 173.860,103.566 171.000 C 103.086 170.120,102.562 169.310,102.403 169.200 C 102.244 169.090,101.721 168.106,101.241 167.014 C 100.761 165.922,100.220 164.932,100.037 164.814 C 99.854 164.696,99.225 163.700,98.638 162.600 C 98.051 161.500,97.139 159.880,96.612 159.000 C 96.084 158.120,95.167 156.500,94.573 155.400 C 93.980 154.300,93.384 153.310,93.247 153.200 C 93.111 153.090,92.580 152.190,92.068 151.200 C 90.919 148.978,89.376 146.334,88.916 145.800 C 88.726 145.580,88.172 144.545,87.684 143.500 C 87.195 142.455,86.662 141.599,86.498 141.599 C 86.334 141.598,85.862 140.775,85.449 139.771 C 85.036 138.767,84.192 137.463,83.574 136.873 C 82.170 135.533,77.957 128.248,77.809 126.905 C 77.749 126.357,77.542 125.795,77.350 125.655 C 77.157 125.515,76.549 124.530,76.000 123.466 C 75.450 122.402,74.820 121.229,74.600 120.858 C 74.380 120.487,73.665 119.287,73.012 118.192 C 71.076 114.946,70.485 113.891,69.609 112.118 C 69.152 111.192,68.558 110.200,68.289 109.912 C 68.020 109.623,67.442 108.671,67.004 107.794 C 66.566 106.917,66.095 106.110,65.956 106.000 C 65.715 105.808,64.325 103.321,62.567 99.934 C 62.109 99.052,61.564 98.211,61.356 98.065 C 61.148 97.919,60.641 97.035,60.228 96.100 C 59.816 95.165,59.368 94.400,59.234 94.400 C 59.099 94.400,58.548 93.455,58.008 92.300 C 57.469 91.145,56.910 90.110,56.767 90.000 C 56.624 89.890,56.120 89.080,55.645 88.200 C 55.171 87.320,54.251 85.700,53.599 84.600 C 52.948 83.500,51.938 81.700,51.355 80.600 C 50.772 79.500,50.170 78.510,50.016 78.400 C 49.863 78.290,49.453 77.621,49.106 76.913 L 48.474 75.626 171.337 75.513 C 238.912 75.451,309.543 75.451,328.295 75.513 L 362.391 75.626 361.895 76.493 C 361.623 76.969,361.259 77.548,361.087 77.780 C 360.270 78.878,357.600 83.602,357.600 83.950 C 357.600 84.166,357.351 84.592,357.046 84.897 C 356.742 85.201,356.095 86.229,355.609 87.181 C 355.124 88.134,354.553 89.112,354.342 89.356 C 354.130 89.600,353.652 90.369,353.279 91.064 C 350.819 95.646,350.265 96.622,350.020 96.800 C 349.869 96.910,349.337 97.854,348.838 98.898 C 348.339 99.942,347.771 100.894,347.577 101.014 C 347.382 101.135,346.849 101.991,346.391 102.917 C 345.393 104.938,344.606 106.334,342.950 109.022 C 342.264 110.134,341.578 111.439,341.425 111.922 C 341.271 112.405,341.006 112.800,340.834 112.800 C 340.662 112.800,340.184 113.565,339.772 114.500 C 339.359 115.435,338.898 116.291,338.747 116.401 C 338.469 116.605,337.347 118.532,335.372 122.200 C 334.780 123.300,334.183 124.290,334.047 124.400 C 333.581 124.775,332.748 126.643,332.874 127.030 C 333.066 127.615,328.031 136.413,327.356 136.672 C 327.031 136.797,326.389 137.641,325.929 138.549 C 325.469 139.457,324.980 140.290,324.842 140.400 C 324.705 140.510,324.234 141.320,323.796 142.200 C 323.358 143.080,322.889 143.890,322.752 144.000 C 322.616 144.110,322.021 145.100,321.430 146.200 C 320.838 147.300,319.827 149.100,319.182 150.200 C 318.537 151.300,317.626 152.909,317.158 153.775 C 316.690 154.641,316.079 155.578,315.801 155.856 C 315.523 156.135,314.958 157.180,314.547 158.180 C 314.136 159.179,313.673 159.998,313.519 159.999 C 313.364 159.999,312.862 160.849,312.403 161.886 C 311.944 162.923,311.437 163.868,311.275 163.986 C 310.865 164.284,307.700 169.856,307.396 170.814 C 307.258 171.246,307.000 171.600,306.822 171.600 C 306.644 171.600,306.123 172.472,305.665 173.538 C 305.206 174.604,304.554 175.706,304.215 175.987 C 303.877 176.268,303.600 176.666,303.600 176.871 C 303.600 177.222,300.801 182.131,300.106 183.000 C 299.929 183.220,299.341 184.345,298.798 185.500 C 298.255 186.655,297.701 187.600,297.566 187.600 C 297.432 187.600,296.984 188.365,296.572 189.300 C 296.159 190.235,295.652 191.119,295.444 191.265 C 295.236 191.411,294.691 192.252,294.233 193.134 C 292.393 196.678,291.081 199.010,290.820 199.200 C 290.669 199.310,290.137 200.210,289.637 201.200 C 289.138 202.190,288.122 203.990,287.378 205.200 C 286.634 206.410,285.799 207.850,285.522 208.400 C 285.084 209.270,283.734 211.572,282.115 214.210 C 281.848 214.644,281.218 215.810,280.715 216.800 C 280.212 217.790,279.564 218.849,279.276 219.153 C 278.987 219.457,278.473 220.402,278.132 221.253 C 277.792 222.104,277.372 222.800,277.200 222.800 C 277.028 222.800,276.608 223.496,276.268 224.347 C 275.927 225.198,275.413 226.146,275.124 226.453 C 274.836 226.761,274.240 227.729,273.801 228.606 C 273.361 229.483,272.798 230.417,272.548 230.681 C 272.299 230.946,271.758 231.980,271.347 232.980 C 270.936 233.979,270.459 234.798,270.286 234.799 C 270.113 234.799,269.624 235.611,269.199 236.603 C 268.774 237.595,268.226 238.630,267.983 238.903 C 267.445 239.506,265.993 241.962,264.732 244.400 C 264.220 245.390,263.689 246.290,263.553 246.400 C 263.416 246.510,262.820 247.500,262.227 248.600 C 261.633 249.700,260.716 251.320,260.188 252.200 C 259.661 253.080,258.749 254.700,258.162 255.800 C 257.575 256.900,256.962 257.890,256.799 258.000 C 256.636 258.110,256.096 259.100,255.600 260.200 C 255.104 261.300,254.565 262.290,254.403 262.400 C 254.240 262.510,253.678 263.383,253.154 264.340 C 252.629 265.297,251.750 266.854,251.200 267.799 C 250.650 268.744,249.681 270.481,249.048 271.659 C 248.414 272.836,247.782 273.890,247.644 274.000 C 247.505 274.110,247.034 274.917,246.596 275.794 C 246.158 276.671,245.580 277.623,245.311 277.912 C 245.042 278.200,244.452 279.192,244.000 280.118 C 242.910 282.349,241.194 285.347,240.864 285.599 C 240.718 285.709,240.182 286.610,239.671 287.600 C 237.765 291.295,236.592 293.406,236.336 293.601 C 236.067 293.806,234.912 295.797,232.972 299.400 C 232.380 300.500,231.782 301.490,231.644 301.600 C 231.505 301.710,231.034 302.517,230.596 303.394 C 230.158 304.271,229.596 305.207,229.347 305.475 C 229.098 305.743,228.558 306.780,228.147 307.780 C 227.736 308.779,227.269 309.598,227.109 309.599 C 226.949 309.599,226.480 310.275,226.066 311.100 C 224.956 313.315,223.085 316.571,222.792 316.800 C 222.651 316.910,222.100 317.900,221.568 319.000 C 221.036 320.100,220.489 321.090,220.353 321.200 C 220.216 321.310,219.620 322.300,219.027 323.400 C 218.433 324.500,217.516 326.120,216.988 327.000 C 216.461 327.880,215.553 329.487,214.971 330.572 C 214.390 331.656,213.703 332.755,213.444 333.013 C 213.186 333.271,212.625 334.274,212.198 335.241 C 211.771 336.209,211.279 337.102,211.105 337.227 C 210.931 337.352,210.386 338.208,209.894 339.129 C 209.402 340.050,208.214 342.183,207.253 343.869 L 205.505 346.935 204.762 345.967 C 204.353 345.435,203.717 344.370,203.350 343.600 C 202.982 342.830,202.552 342.110,202.393 342.000 C 202.235 341.890,201.628 340.900,201.045 339.800 C 200.462 338.700,199.452 336.900,198.801 335.800 C 198.149 334.700,197.229 333.080,196.755 332.200 C 196.280 331.320,195.782 330.510,195.646 330.400 C 195.510 330.290,194.964 329.300,194.432 328.200 C 193.900 327.100,193.339 326.110,193.186 326.000 C 193.033 325.890,192.502 325.001,192.007 324.025 C 191.512 323.049,190.858 322.001,190.554 321.697 C 190.249 321.392,190.000 320.886,190.000 320.571 C 190.000 320.257,189.685 319.684,189.300 319.297 C 188.915 318.910,188.246 317.804,187.813 316.838 C 187.380 315.873,186.840 314.884,186.613 314.641 C 186.386 314.399,185.784 313.349,185.276 312.309 C 184.769 311.269,184.189 310.317,183.988 310.192 C 183.787 310.068,183.253 309.209,182.800 308.283 C 181.710 306.051,179.994 303.053,179.664 302.801 C 179.518 302.691,178.964 301.700,178.432 300.600 C 177.900 299.500,177.348 298.510,177.205 298.400 C 177.062 298.290,176.543 297.360,176.052 296.332 C 175.562 295.305,174.899 294.248,174.580 293.983 C 174.261 293.719,174.000 293.255,174.000 292.952 C 174.000 292.650,173.401 291.727,172.668 290.901 C 171.146 289.186,167.201 282.467,167.199 281.586 C 167.198 281.264,166.795 280.370,166.304 279.600 C 165.421 278.216,164.899 277.293,162.648 273.131 C 162.014 271.959,161.382 270.910,161.244 270.800 C 161.105 270.690,160.634 269.880,160.196 269.000 C 159.758 268.120,159.289 267.310,159.152 267.200 C 159.016 267.090,158.421 266.100,157.830 265.000 C 157.238 263.900,156.227 262.100,155.582 261.000 C 154.937 259.900,154.026 258.291,153.558 257.425 C 153.090 256.559,152.458 255.601,152.154 255.297 C 151.849 254.992,151.600 254.602,151.600 254.430 C 151.600 254.258,150.699 252.606,149.598 250.759 C 148.497 248.911,147.228 246.635,146.779 245.700 C 146.330 244.765,145.836 243.999,145.681 243.999 C 145.527 243.998,145.064 243.179,144.653 242.180 C 144.242 241.180,143.676 240.133,143.396 239.853 C 142.932 239.389,141.855 237.506,139.869 233.686 C 139.466 232.913,138.910 232.052,138.631 231.774 C 138.353 231.496,137.888 230.696,137.599 229.997 C 137.076 228.734,135.114 228.464,134.420 229.559 C 134.299 229.750,133.300 230.208,132.200 230.578 C 131.100 230.948,129.840 231.478,129.400 231.758 C 128.960 232.037,127.610 232.609,126.400 233.029 C 125.190 233.450,124.088 233.949,123.951 234.138 C 122.864 235.642,116.753 233.916,114.230 231.394 C 113.326 230.489,112.400 230.090,112.400 230.605 C 112.400 230.892,113.347 232.557,113.648 232.800 C 113.868 232.978,114.455 234.019,116.879 238.536 C 117.252 239.231,117.730 240.000,117.942 240.244 C 118.153 240.488,118.727 241.478,119.217 242.444 C 119.707 243.410,120.231 244.290,120.381 244.400 C 120.532 244.510,121.080 245.500,121.600 246.600 C 122.120 247.700,122.667 248.690,122.817 248.800 C 122.966 248.910,123.409 249.630,123.800 250.400 C 124.191 251.170,124.632 251.890,124.778 252.000 C 124.925 252.110,125.451 253.010,125.947 254.000 C 127.003 256.107,128.987 259.615,129.466 260.224 C 129.803 260.651,130.346 261.600,132.538 265.600 C 133.201 266.810,133.880 267.894,134.047 268.008 C 134.213 268.122,134.706 269.047,135.142 270.064 C 135.577 271.080,136.083 271.976,136.267 272.056 C 136.450 272.135,137.011 273.010,137.512 274.000 C 138.014 274.990,139.072 276.880,139.863 278.200 C 142.467 282.546,143.168 283.780,144.000 285.482 C 144.452 286.408,145.042 287.400,145.311 287.688 C 145.580 287.977,146.158 288.929,146.596 289.806 C 147.034 290.683,147.505 291.490,147.644 291.600 C 147.782 291.710,148.370 292.700,148.951 293.800 C 149.532 294.900,150.535 296.700,151.180 297.800 C 151.826 298.900,152.748 300.520,153.230 301.400 C 153.713 302.280,154.231 303.090,154.381 303.200 C 154.532 303.310,155.084 304.300,155.609 305.400 C 156.134 306.500,156.712 307.580,156.894 307.800 C 157.586 308.635,160.305 313.439,160.573 314.300 C 160.728 314.795,161.017 315.200,161.216 315.200 C 161.415 315.200,161.965 316.100,162.438 317.200 C 162.911 318.300,163.444 319.200,163.622 319.200 C 163.800 319.200,164.073 319.605,164.229 320.100 C 164.384 320.595,165.116 321.948,165.856 323.108 C 166.595 324.267,167.200 325.379,167.200 325.579 C 167.200 325.779,167.434 326.181,167.721 326.471 C 168.007 326.762,168.653 327.854,169.155 328.898 C 169.658 329.942,170.229 330.894,170.423 331.014 C 170.618 331.135,171.134 332.041,171.571 333.027 C 172.007 334.014,172.643 335.100,172.982 335.439 C 173.322 335.779,173.600 336.280,173.600 336.553 C 173.600 336.826,173.915 337.398,174.300 337.825 C 174.685 338.251,175.436 339.545,175.968 340.700 C 176.501 341.855,177.059 342.800,177.208 342.800 C 177.357 342.800,177.815 343.546,178.226 344.459 C 178.638 345.371,179.160 346.316,179.387 346.559 C 179.614 346.801,180.210 347.810,180.711 348.800 C 181.212 349.790,182.335 351.770,183.207 353.200 C 184.078 354.630,185.067 356.340,185.403 357.000 C 185.740 357.660,186.626 359.190,187.373 360.400 C 188.119 361.610,189.138 363.410,189.637 364.400 C 190.137 365.390,190.669 366.290,190.820 366.400 C 190.971 366.510,191.570 367.500,192.151 368.600 C 192.732 369.700,193.566 371.227,194.004 371.994 C 194.794 373.376,194.800 374.298,194.800 487.458 L 194.800 601.528 191.300 601.789 C 189.375 601.933,187.440 602.204,187.000 602.391 C 186.560 602.579,181.610 603.116,176.000 603.584 C 170.390 604.052,165.260 604.590,164.600 604.780 C 163.940 604.970,159.440 605.445,154.600 605.836 C 149.760 606.227,145.710 606.663,145.600 606.807 C 145.490 606.950,140.450 607.469,134.400 607.961 C 128.350 608.452,123.040 609.008,122.600 609.196 C 122.160 609.384,119.280 609.742,116.200 609.992 C 113.120 610.242,109.655 610.551,108.500 610.678 L 106.400 610.910 106.400 616.455 L 106.400 622.000 205.200 622.000 L 304.000 622.000 304.000 616.452 L 304.000 610.903 302.100 610.668 C 301.055 610.539,297.590 610.229,294.400 609.980 C 291.210 609.732,288.240 609.376,287.800 609.190 C 287.360 609.004,282.140 608.448,276.200 607.955 C 270.260 607.462,265.310 606.942,265.200 606.800 C 265.090 606.657,261.040 606.224,256.200 605.837 C 251.360 605.450,246.792 604.976,246.049 604.785 C 245.306 604.593,240.176 604.053,234.649 603.584 C 229.122 603.116,224.240 602.578,223.800 602.388 C 223.360 602.199,221.335 601.925,219.300 601.780 L 215.600 601.515 215.600 487.358 C 215.600 424.571,215.735 373.198,215.900 373.195 C 216.065 373.193,216.560 372.428,216.999 371.495 C 217.438 370.563,217.948 369.620,218.133 369.400 C 218.577 368.869,220.525 365.446,221.661 363.200 C 222.162 362.210,222.726 361.220,222.916 361.000 C 223.375 360.466,224.918 357.824,226.069 355.600 C 226.581 354.610,227.150 353.620,227.334 353.400 C 227.781 352.863,229.735 349.427,230.859 347.200 C 231.358 346.210,231.971 345.190,232.221 344.934 C 232.471 344.678,232.905 343.913,233.186 343.234 C 233.467 342.555,233.838 342.000,234.010 342.000 C 234.183 342.000,234.734 341.010,235.235 339.800 C 235.737 338.590,236.263 337.600,236.405 337.600 C 236.547 337.600,237.085 336.700,237.600 335.600 C 238.115 334.500,238.674 333.600,238.841 333.600 C 239.009 333.600,239.270 333.209,239.422 332.732 C 239.573 332.254,240.305 330.913,241.049 329.751 C 241.792 328.589,242.400 327.463,242.400 327.248 C 242.400 327.033,242.625 326.619,242.901 326.329 C 243.176 326.038,243.760 325.080,244.198 324.200 C 244.635 323.320,245.228 322.306,245.515 321.948 C 245.803 321.589,246.363 320.689,246.761 319.948 C 248.396 316.900,249.565 314.840,250.497 313.363 C 251.039 312.503,251.612 311.395,251.769 310.900 C 251.925 310.405,252.194 310.000,252.366 310.000 C 252.538 310.000,253.016 309.235,253.428 308.300 C 253.841 307.365,254.348 306.481,254.556 306.335 C 254.764 306.189,255.309 305.348,255.767 304.466 C 257.525 301.079,258.915 298.592,259.156 298.400 C 259.295 298.290,259.766 297.480,260.204 296.600 C 260.642 295.720,261.111 294.910,261.248 294.800 C 261.384 294.690,261.980 293.700,262.572 292.600 C 263.750 290.413,264.752 288.662,266.920 285.000 C 267.702 283.680,268.760 281.790,269.270 280.800 C 269.781 279.810,270.311 278.910,270.447 278.800 C 270.584 278.690,271.180 277.700,271.773 276.600 C 272.367 275.500,273.284 273.880,273.812 273.000 C 274.339 272.120,275.247 270.513,275.829 269.428 C 276.410 268.344,277.115 267.228,277.396 266.947 C 277.676 266.667,278.242 265.620,278.653 264.620 C 279.064 263.621,279.527 262.802,279.681 262.801 C 279.836 262.801,280.338 261.951,280.797 260.914 C 281.256 259.877,281.763 258.932,281.925 258.814 C 282.320 258.527,285.600 252.780,285.600 252.376 C 285.600 252.200,285.851 251.806,286.157 251.500 C 286.463 251.194,287.190 250.056,287.771 248.972 C 288.353 247.887,289.261 246.280,289.788 245.400 C 290.316 244.520,291.233 242.900,291.827 241.800 C 292.420 240.700,293.022 239.710,293.166 239.600 C 293.310 239.490,293.869 238.455,294.408 237.300 C 294.948 236.145,295.499 235.200,295.634 235.200 C 295.768 235.200,296.216 234.435,296.628 233.500 C 297.041 232.565,297.548 231.681,297.756 231.535 C 297.964 231.389,298.509 230.548,298.967 229.666 C 300.725 226.279,302.115 223.792,302.356 223.600 C 302.495 223.490,302.966 222.683,303.404 221.806 C 303.842 220.929,304.420 219.977,304.689 219.688 C 304.958 219.400,305.552 218.408,306.009 217.482 C 307.014 215.447,307.793 214.067,309.502 211.294 C 310.216 210.136,310.800 209.011,310.800 208.794 C 310.800 208.577,310.938 208.400,311.106 208.400 C 311.274 208.400,311.854 207.455,312.396 206.300 C 312.938 205.145,313.616 203.957,313.902 203.660 C 314.188 203.363,314.691 202.553,315.019 201.860 C 315.347 201.167,316.226 199.610,316.973 198.400 C 317.719 197.190,318.742 195.390,319.244 194.400 C 319.747 193.410,320.372 192.383,320.632 192.119 C 320.892 191.854,321.442 190.820,321.853 189.820 C 322.264 188.821,322.744 188.002,322.920 188.001 C 323.097 188.001,323.513 187.415,323.846 186.700 C 324.179 185.985,325.144 184.230,325.991 182.800 C 326.837 181.370,327.950 179.390,328.465 178.400 C 328.979 177.410,329.511 176.510,329.647 176.400 C 329.784 176.290,330.380 175.300,330.973 174.200 C 331.567 173.100,332.484 171.480,333.012 170.600 C 333.539 169.720,334.447 168.113,335.029 167.028 C 335.610 165.944,336.297 164.845,336.556 164.587 C 336.814 164.329,337.375 163.326,337.802 162.359 C 338.229 161.391,338.694 160.510,338.835 160.400 C 338.977 160.290,339.522 159.424,340.046 158.476 C 340.571 157.528,341.369 156.088,341.820 155.276 C 342.271 154.464,343.099 153.080,343.661 152.200 C 344.223 151.320,344.812 150.195,344.969 149.700 C 345.125 149.205,345.394 148.800,345.566 148.800 C 345.738 148.800,346.216 148.035,346.628 147.100 C 347.041 146.165,347.502 145.309,347.653 145.199 C 347.979 144.960,349.535 142.240,351.028 139.300 C 351.614 138.145,352.208 137.198,352.347 137.196 C 352.486 137.194,352.955 136.384,353.390 135.396 C 353.824 134.408,354.288 133.600,354.421 133.600 C 354.554 133.600,355.099 132.655,355.632 131.500 C 356.164 130.345,356.750 129.335,356.933 129.256 C 357.117 129.176,357.616 128.366,358.044 127.456 C 358.471 126.545,359.433 124.810,360.180 123.600 C 360.927 122.390,361.957 120.590,362.469 119.600 C 362.981 118.610,363.511 117.710,363.647 117.600 C 363.784 117.490,364.380 116.500,364.973 115.400 C 365.567 114.300,366.484 112.680,367.012 111.800 C 367.539 110.920,368.451 109.300,369.038 108.200 C 369.625 107.100,370.231 106.110,370.385 106.000 C 370.539 105.890,371.100 104.900,371.632 103.800 C 372.164 102.700,372.915 101.451,373.300 101.025 C 373.685 100.598,374.000 100.026,374.000 99.753 C 374.000 99.480,374.262 98.995,374.582 98.676 C 374.901 98.356,375.576 97.288,376.082 96.302 C 378.084 92.397,379.309 90.233,379.796 89.747 C 380.076 89.467,380.642 88.420,381.053 87.420 C 381.464 86.421,381.936 85.602,382.103 85.601 C 382.270 85.601,382.695 84.880,383.047 84.000 C 383.399 83.120,383.817 82.400,383.975 82.400 C 384.134 82.400,384.685 81.500,385.200 80.400 C 385.715 79.300,386.257 78.400,386.403 78.400 C 386.550 78.400,387.088 77.410,387.600 76.200 C 388.112 74.990,388.645 74.000,388.785 74.000 C 388.926 74.000,389.437 73.235,389.923 72.300 C 390.408 71.365,391.340 69.700,391.995 68.600 C 392.649 67.500,393.657 65.713,394.235 64.628 C 394.813 63.544,395.526 62.417,395.819 62.124 C 396.112 61.831,396.578 60.963,396.856 60.196 C 397.134 59.428,397.485 58.800,397.636 58.800 C 397.996 58.800,399.600 55.384,399.600 54.618 C 399.600 54.099,376.328 54.026,205.200 54.011 C 10.831 53.994,10.800 53.994,10.800 54.797 " stroke="none" fill="#040404" fill-rule="evenodd"></path></g></svg>